<svg width="375" height="220" viewBox="0 0 375 220" fill="none" xmlns="http://www.w3.org/2000/svg">
<g opacity="0.5">
<rect width="375" height="220" fill="black"/>
<path d="M54.336 195.152C45.376 195.152 38.72 192.144 34.368 186.128C30.08 180.048 27.936 171.504 27.936 160.496C27.936 149.488 30.08 140.976 34.368 134.96C38.72 128.88 45.376 125.84 54.336 125.84C57.792 125.84 60.832 126.32 63.456 127.28C66.144 128.176 68.448 129.456 70.368 131.12C72.288 132.784 73.856 134.8 75.072 137.168C76.352 139.536 77.344 142.192 78.048 145.136L64.608 148.4C64.224 146.8 63.776 145.328 63.264 143.984C62.752 142.64 62.08 141.488 61.248 140.528C60.48 139.568 59.488 138.832 58.272 138.32C57.12 137.744 55.712 137.456 54.048 137.456C50.144 137.456 47.36 138.992 45.696 142.064C44.096 145.072 43.296 149.264 43.296 154.64V166.352C43.296 171.728 44.096 175.952 45.696 179.024C47.36 182.032 50.144 183.536 54.048 183.536C57.376 183.536 59.776 182.512 61.248 180.464C62.784 178.416 63.904 175.792 64.608 172.592L78.048 175.856C77.344 178.8 76.352 181.456 75.072 183.824C73.856 186.192 72.288 188.24 70.368 189.968C68.448 191.632 66.144 192.912 63.456 193.808C60.832 194.704 57.792 195.152 54.336 195.152ZM100.763 149.456H99.7065V194H87.4185V126.992H104.699L119.963 171.536H121.019V126.992H133.307V194H116.027L100.763 149.456Z" fill="white"/>
</g>
</svg>
