<svg width="64" height="64" viewBox="0 0 64 64" fill="none" xmlns="http://www.w3.org/2000/svg">
<g opacity="0.76">
<rect width="64" height="64" fill="black"/>
<path d="M29.5293 20.1191V28.3809H28.8438C28.3281 26.2246 27.3672 24.5723 25.9609 23.4238C24.5547 22.2754 22.9609 21.7012 21.1797 21.7012C19.6914 21.7012 18.3262 22.1289 17.084 22.9844C15.8418 23.8398 14.9336 24.959 14.3594 26.3418C13.6211 28.1113 13.252 30.0801 13.252 32.248C13.252 34.3809 13.5215 36.3262 14.0605 38.084C14.5996 39.8301 15.4434 41.1543 16.5918 42.0566C17.7402 42.9473 19.2285 43.3926 21.0566 43.3926C22.5566 43.3926 23.9277 43.0645 25.1699 42.4082C26.4238 41.752 27.7422 40.6211 29.125 39.0156V41.0723C27.7891 42.4668 26.3945 43.4805 24.9414 44.1133C23.5 44.7344 21.8125 45.0449 19.8789 45.0449C17.3359 45.0449 15.0742 44.5352 13.0938 43.5156C11.125 42.4961 9.60156 41.0312 8.52344 39.1211C7.45703 37.2109 6.92383 35.1777 6.92383 33.0215C6.92383 30.748 7.51562 28.5918 8.69922 26.5527C9.89453 24.5137 11.5 22.9316 13.5156 21.8066C15.543 20.6816 17.6934 20.1191 19.9668 20.1191C21.6426 20.1191 23.4121 20.4824 25.2754 21.209C26.3535 21.6309 27.0391 21.8418 27.332 21.8418C27.707 21.8418 28.0293 21.707 28.2988 21.4375C28.5801 21.1562 28.7617 20.7168 28.8438 20.1191H29.5293ZM40.4805 20.6641L52.2402 35.4473V25.1992C52.2402 23.7695 52.0352 22.8027 51.625 22.2988C51.0625 21.6191 50.1191 21.291 48.7949 21.3145V20.6641H56.6699V21.3145C55.6621 21.4434 54.9824 21.6133 54.6309 21.8242C54.291 22.0234 54.0215 22.3574 53.8223 22.8262C53.6348 23.2832 53.541 24.0742 53.541 25.1992V45.0449H52.9434L36.8242 25.1992V40.3516C36.8242 41.7227 37.1348 42.6484 37.7559 43.1289C38.3887 43.6094 39.1094 43.8496 39.918 43.8496H40.4805V44.5H32.0254V43.8496C33.3379 43.8379 34.252 43.5684 34.7676 43.041C35.2832 42.5137 35.541 41.6172 35.541 40.3516V23.5293L35.0312 22.8965C34.5273 22.2637 34.082 21.8477 33.6953 21.6484C33.3086 21.4492 32.752 21.3379 32.0254 21.3145V20.6641H40.4805Z" fill="white"/>
</g>
</svg>
