<svg width="151" height="20" viewBox="0 0 151 20" fill="none" xmlns="http://www.w3.org/2000/svg">
<path d="M4.845 16.18C3.565 16.18 2.61 15.715 1.98 14.785C1.36 13.855 1.05 12.515 1.05 10.765C1.05 9.015 1.36 7.675 1.98 6.745C2.61 5.815 3.565 5.35 4.845 5.35C5.325 5.35 5.74 5.415 6.09 5.545C6.44 5.675 6.74 5.85 6.99 6.07C7.24 6.29 7.45 6.54 7.62 6.82C7.79 7.09 7.94 7.365 8.07 7.645L6.99 8.14C6.9 7.91 6.795 7.695 6.675 7.495C6.555 7.285 6.41 7.105 6.24 6.955C6.08 6.795 5.885 6.67 5.655 6.58C5.435 6.49 5.165 6.445 4.845 6.445C4.015 6.445 3.395 6.76 2.985 7.39C2.585 8.02 2.385 8.86 2.385 9.91V11.62C2.385 12.67 2.585 13.51 2.985 14.14C3.395 14.77 4.015 15.085 4.845 15.085C5.165 15.085 5.435 15.04 5.655 14.95C5.885 14.86 6.08 14.74 6.24 14.59C6.41 14.43 6.555 14.25 6.675 14.05C6.795 13.84 6.9 13.62 6.99 13.39L8.07 13.885C7.94 14.175 7.79 14.455 7.62 14.725C7.45 14.995 7.24 15.24 6.99 15.46C6.74 15.68 6.44 15.855 6.09 15.985C5.74 16.115 5.325 16.18 4.845 16.18ZM16.4191 16C15.9491 16 15.6141 15.88 15.4141 15.64C15.2141 15.4 15.0891 15.1 15.0391 14.74H14.9641C14.7941 15.19 14.5191 15.545 14.1391 15.805C13.7691 16.055 13.2691 16.18 12.6391 16.18C11.8291 16.18 11.1841 15.97 10.7041 15.55C10.2241 15.13 9.98414 14.555 9.98414 13.825C9.98414 13.105 10.2441 12.55 10.7641 12.16C11.2941 11.77 12.1441 11.575 13.3141 11.575H14.9641V10.81C14.9641 10.24 14.8041 9.815 14.4841 9.535C14.1641 9.245 13.7091 9.1 13.1191 9.1C12.5991 9.1 12.1741 9.205 11.8441 9.415C11.5141 9.615 11.2491 9.89 11.0491 10.24L10.2391 9.64C10.3391 9.44 10.4741 9.245 10.6441 9.055C10.8141 8.865 11.0241 8.7 11.2741 8.56C11.5241 8.41 11.8091 8.295 12.1291 8.215C12.4491 8.125 12.8041 8.08 13.1941 8.08C14.1041 8.08 14.8241 8.31 15.3541 8.77C15.8941 9.23 16.1641 9.87 16.1641 10.69V14.95H17.2441V16H16.4191ZM12.8491 15.175C13.1591 15.175 13.4391 15.14 13.6891 15.07C13.9491 14.99 14.1741 14.89 14.3641 14.77C14.5541 14.64 14.6991 14.49 14.7991 14.32C14.9091 14.14 14.9641 13.95 14.9641 13.75V12.475H13.3141C12.5941 12.475 12.0691 12.575 11.7391 12.775C11.4091 12.975 11.2441 13.265 11.2441 13.645V13.96C11.2441 14.36 11.3841 14.665 11.6641 14.875C11.9541 15.075 12.3491 15.175 12.8491 15.175ZM22.9683 6.55C22.6183 6.55 22.3733 6.48 22.2333 6.34C22.0933 6.19 22.0233 6.005 22.0233 5.785V5.545C22.0233 5.325 22.0933 5.145 22.2333 5.005C22.3733 4.855 22.6183 4.78 22.9683 4.78C23.3183 4.78 23.5633 4.855 23.7033 5.005C23.8433 5.145 23.9133 5.325 23.9133 5.545V5.785C23.9133 6.005 23.8433 6.19 23.7033 6.34C23.5633 6.48 23.3183 6.55 22.9683 6.55ZM19.5783 14.98H22.3683V9.28H19.5783V8.26H23.5683V14.98H26.1783V16H19.5783V14.98ZM28.1374 14.98H30.4024V9.28H28.1374V8.26H31.6024V10.21H31.6774C31.8374 9.6 32.1374 9.125 32.5774 8.785C33.0274 8.435 33.5974 8.26 34.2874 8.26H35.3674V9.46H33.9124C33.2224 9.46 32.6624 9.66 32.2324 10.06C31.8124 10.46 31.6024 10.985 31.6024 11.635V14.98H34.6024V16H28.1374V14.98ZM40.4766 16.18C39.9366 16.18 39.4466 16.085 39.0066 15.895C38.5766 15.705 38.2066 15.435 37.8966 15.085C37.5966 14.725 37.3666 14.3 37.2066 13.81C37.0466 13.31 36.9666 12.75 36.9666 12.13C36.9666 11.52 37.0466 10.965 37.2066 10.465C37.3666 9.965 37.5966 9.54 37.8966 9.19C38.2066 8.83 38.5766 8.555 39.0066 8.365C39.4466 8.175 39.9366 8.08 40.4766 8.08C41.0166 8.08 41.5016 8.175 41.9316 8.365C42.3716 8.555 42.7416 8.83 43.0416 9.19C43.3516 9.54 43.5866 9.965 43.7466 10.465C43.9066 10.965 43.9866 11.52 43.9866 12.13C43.9866 12.75 43.9066 13.31 43.7466 13.81C43.5866 14.3 43.3516 14.725 43.0416 15.085C42.7416 15.435 42.3716 15.705 41.9316 15.895C41.5016 16.085 41.0166 16.18 40.4766 16.18ZM40.4766 15.145C41.1466 15.145 41.6866 14.945 42.0966 14.545C42.5066 14.145 42.7116 13.525 42.7116 12.685V11.575C42.7116 10.735 42.5066 10.115 42.0966 9.715C41.6866 9.315 41.1466 9.115 40.4766 9.115C39.8066 9.115 39.2666 9.315 38.8566 9.715C38.4466 10.115 38.2416 10.735 38.2416 11.575V12.685C38.2416 13.525 38.4466 14.145 38.8566 14.545C39.2666 14.945 39.8066 15.145 40.4766 15.145Z" fill="white"/>
<path d="M59 10H100.5" stroke="white"/>
<path d="M116.945 7.135H116.84V16H115.7V5.53H117.485L121.055 14.305H121.16V5.53H122.3V16H120.515L116.945 7.135ZM128.129 16.18C127.569 16.18 127.064 16.085 126.614 15.895C126.174 15.705 125.794 15.435 125.474 15.085C125.164 14.725 124.924 14.3 124.754 13.81C124.584 13.31 124.499 12.755 124.499 12.145C124.499 11.525 124.584 10.965 124.754 10.465C124.934 9.965 125.179 9.54 125.489 9.19C125.799 8.83 126.169 8.555 126.599 8.365C127.039 8.175 127.524 8.08 128.054 8.08C128.574 8.08 129.044 8.175 129.464 8.365C129.894 8.555 130.259 8.82 130.559 9.16C130.859 9.49 131.089 9.885 131.249 10.345C131.409 10.805 131.489 11.31 131.489 11.86V12.43H125.759V12.79C125.759 13.13 125.814 13.445 125.924 13.735C126.034 14.025 126.189 14.275 126.389 14.485C126.599 14.695 126.849 14.86 127.139 14.98C127.439 15.09 127.769 15.145 128.129 15.145C128.649 15.145 129.099 15.025 129.479 14.785C129.859 14.545 130.149 14.215 130.349 13.795L131.234 14.395C131.004 14.915 130.619 15.345 130.079 15.685C129.549 16.015 128.899 16.18 128.129 16.18ZM128.054 9.07C127.724 9.07 127.419 9.13 127.139 9.25C126.859 9.37 126.614 9.535 126.404 9.745C126.204 9.955 126.044 10.205 125.924 10.495C125.814 10.775 125.759 11.085 125.759 11.425V11.53H130.199V11.365C130.199 11.025 130.144 10.715 130.034 10.435C129.934 10.155 129.789 9.915 129.599 9.715C129.419 9.505 129.194 9.345 128.924 9.235C128.664 9.125 128.374 9.07 128.054 9.07ZM132.938 8.26H134.003L134.888 14.95H135.023L136.343 8.26H137.663L138.983 14.95H139.118L140.003 8.26H141.038L139.853 16H138.293L137.063 9.52H136.943L135.683 16H134.123L132.938 8.26ZM146.072 16.18C145.262 16.18 144.562 16.045 143.972 15.775C143.392 15.495 142.897 15.125 142.487 14.665L143.297 13.96C143.667 14.35 144.072 14.65 144.512 14.86C144.952 15.07 145.482 15.175 146.102 15.175C146.702 15.175 147.192 15.07 147.572 14.86C147.962 14.64 148.157 14.3 148.157 13.84C148.157 13.64 148.117 13.475 148.037 13.345C147.967 13.205 147.867 13.095 147.737 13.015C147.607 12.935 147.462 12.875 147.302 12.835C147.142 12.785 146.972 12.745 146.792 12.715L145.577 12.535C145.307 12.495 145.012 12.44 144.692 12.37C144.382 12.3 144.097 12.19 143.837 12.04C143.577 11.88 143.357 11.67 143.177 11.41C143.007 11.15 142.922 10.81 142.922 10.39C142.922 10 142.997 9.665 143.147 9.385C143.307 9.095 143.527 8.855 143.807 8.665C144.087 8.465 144.417 8.32 144.797 8.23C145.177 8.13 145.592 8.08 146.042 8.08C146.742 8.08 147.347 8.19 147.857 8.41C148.377 8.63 148.822 8.935 149.192 9.325L148.412 10.06C148.322 9.95 148.207 9.84 148.067 9.73C147.937 9.61 147.772 9.505 147.572 9.415C147.382 9.315 147.157 9.235 146.897 9.175C146.637 9.115 146.337 9.085 145.997 9.085C145.387 9.085 144.917 9.19 144.587 9.4C144.267 9.61 144.107 9.915 144.107 10.315C144.107 10.515 144.142 10.685 144.212 10.825C144.292 10.955 144.397 11.06 144.527 11.14C144.657 11.22 144.802 11.285 144.962 11.335C145.132 11.375 145.302 11.41 145.472 11.44L146.687 11.62C146.967 11.66 147.262 11.715 147.572 11.785C147.882 11.855 148.167 11.97 148.427 12.13C148.687 12.28 148.902 12.485 149.072 12.745C149.252 13.005 149.342 13.345 149.342 13.765C149.342 14.535 149.042 15.13 148.442 15.55C147.852 15.97 147.062 16.18 146.072 16.18Z" fill="white"/>
</svg>
